<?xml version="1.0" encoding="utf-8"?>
<!-- Generator: Adobe Illustrator 24.0.2, SVG Export Plug-In . SVG Version: 6.00 Build 0)  -->
<svg version="1.1" id="Capa_1" xmlns="http://www.w3.org/2000/svg" xmlns:xlink="http://www.w3.org/1999/xlink" x="0px" y="0px"
	 viewBox="0 0 274 790" style="enable-background:new 0 0 274 790;" xml:space="preserve">
<style type="text/css">
	.st0{opacity:0.4;fill:#7EC5B5;}
	.st1{fill:#FFFFFF;}
	.st2{display:none;}
	.st3{display:inline;fill:#FFFFFF;}
	.st4{fill:#161616;}
</style>
<path class="st0" d="M274,11L47.01,403.42L276,782l-2-321V96V11z M132.22,352.2c-4.32,7.48-8.63,14.95-12.95,22.43
	c-0.03,0.05-0.06,0.09-0.1,0.15c-0.05-0.09-0.1-0.16-0.14-0.24c-4.28-7.42-8.57-14.84-12.85-22.26c-0.05-0.09-0.09-0.18-0.13-0.27
	c8.76,0,17.52,0,26.28,0C132.29,352.07,132.26,352.14,132.22,352.2z M138.21,369.08c0.02-0.04,0.04-0.09,0.07-0.13
	c2.14-3.71,4.28-7.42,6.43-11.13c0.02-0.04,0.04-0.07,0.07-0.12c0.02,0.03,0.04,0.05,0.05,0.07c2.16,3.74,4.32,7.48,6.47,11.21
	c0.02,0.03,0.03,0.06,0.05,0.09C146.97,369.08,142.59,369.08,138.21,369.08z"/>
<g>
	<g>
		<path class="st1" d="M50.17,402.9c0.1-0.2,0.18-0.4,0.29-0.59c9.51-16.48,19.02-32.96,28.54-49.43c0.09-0.16,0.19-0.32,0.31-0.53
			c0.1,0.14,0.17,0.23,0.23,0.33c9.58,16.6,19.17,33.2,28.75,49.81c0.08,0.14,0.15,0.28,0.23,0.42
			C89.07,402.9,69.62,402.9,50.17,402.9z M107.15,401.97c0.03-0.03,0.06-0.06,0.09-0.08c-9.23-16-18.47-31.99-27.7-47.99
			c-0.04,0.01-0.08,0.02-0.12,0.03c-2.68,12.36-5.36,24.72-8.04,37.11C83.34,394.7,95.25,398.33,107.15,401.97z M51.53,401.68
			c0.22-0.1,0.3-0.13,0.38-0.17c6.18-3.43,12.37-6.87,18.55-10.31c0.16-0.09,0.31-0.31,0.35-0.5c0.3-1.27,0.57-2.54,0.85-3.81
			c2.13-9.81,4.25-19.63,6.38-29.44c0.17-0.77,0.33-1.55,0.49-2.32c-0.03-0.01-0.07-0.02-0.1-0.03
			C69.49,370.58,60.54,386.07,51.53,401.68z M52.06,402.14c0.01,0.02,0.02,0.05,0.03,0.07c17.84,0,35.67,0,53.51,0
			c-0.13-0.1-0.26-0.14-0.39-0.19c-11.22-3.43-22.45-6.87-33.67-10.31c-0.33-0.1-0.59-0.08-0.9,0.09
			c-5.01,2.8-10.03,5.58-15.05,8.37C54.41,400.82,53.23,401.48,52.06,402.14z"/>
	</g>
	<g class="st2">
		<path class="st3" d="M47.48,408.05h0.86l3.12,7.06l3.1-7.06h0.86v8.1h-0.65v-7.28l-3.06,6.93h-0.6l-3.04-6.93v7.28h-0.6V408.05z"
			/>
		<path class="st3" d="M57.53,408.18h0.73V409h-0.73V408.18z M57.58,410.38h0.65v5.77h-0.65V410.38z"/>
		<path class="st3" d="M60.29,407.75h0.65v5.49l2.71-2.86h0.77l-2.35,2.41l2.48,3.36h-0.78l-2.14-2.92l-0.7,0.7v2.22h-0.65V407.75z"
			/>
		<path class="st3" d="M69.81,415.42v0.56c-0.47,0.17-0.99,0.26-1.54,0.26c-0.88,0-1.53-0.24-1.95-0.71
			c-0.46-0.5-0.69-1.26-0.69-2.26c0-0.95,0.21-1.69,0.63-2.22c0.42-0.53,1-0.8,1.73-0.8c0.83,0,1.41,0.33,1.77,0.99
			c0.11,0.2,0.19,0.43,0.24,0.67c0.05,0.25,0.08,0.48,0.09,0.69c0.01,0.21,0.02,0.46,0.02,0.75h-3.79c0,0.77,0.16,1.36,0.5,1.77
			c0.33,0.4,0.82,0.6,1.46,0.6c0.47,0,0.95-0.1,1.44-0.3H69.81z M66.32,412.86h3.1c0-0.68-0.12-1.2-0.37-1.56
			c-0.24-0.36-0.61-0.53-1.09-0.53c-0.5,0-0.89,0.18-1.17,0.55C66.52,411.68,66.36,412.2,66.32,412.86z"/>
		<path class="st3" d="M71.1,408.05h0.69l1.89,7.15l2.07-6.89h0.65l1.94,6.89l2.02-7.15h0.6l-2.37,8.1h-0.6l-1.98-6.93l-2.07,6.93
			h-0.65L71.1,408.05z"/>
		<path class="st3" d="M84.45,416.28c-0.79,0-1.4-0.26-1.84-0.79c-0.44-0.52-0.66-1.26-0.66-2.21c0-0.95,0.22-1.69,0.67-2.23
			c0.44-0.54,1.07-0.81,1.87-0.81c0.79,0,1.4,0.26,1.84,0.79c0.44,0.52,0.66,1.26,0.66,2.21c0,0.95-0.22,1.69-0.67,2.23
			C85.87,416.01,85.25,416.28,84.45,416.28z M83.1,415.14c0.31,0.42,0.76,0.62,1.37,0.62s1.06-0.21,1.37-0.62s0.46-1.04,0.46-1.87
			c0-0.83-0.15-1.46-0.46-1.87s-0.76-0.62-1.37-0.62s-1.06,0.21-1.37,0.62c-0.31,0.42-0.46,1.04-0.46,1.87
			C82.64,414.1,82.79,414.72,83.1,415.14z"/>
		<path class="st3" d="M91.25,410.34v0.6c-0.16-0.03-0.33-0.04-0.51-0.04c-0.19,0-0.36,0.02-0.51,0.06
			c-0.15,0.04-0.28,0.1-0.38,0.17c-0.1,0.07-0.18,0.16-0.25,0.25c-0.07,0.1-0.12,0.19-0.16,0.29c-0.04,0.09-0.06,0.2-0.09,0.33
			c-0.02,0.13-0.03,0.24-0.04,0.32c0,0.08-0.01,0.18-0.01,0.3v3.53h-0.65v-5.77h0.47l0.13,1.08c0.06-0.22,0.14-0.41,0.25-0.55
			c0.11-0.15,0.25-0.26,0.41-0.34c0.16-0.08,0.33-0.14,0.51-0.17c0.18-0.03,0.38-0.05,0.59-0.05H91.25z"/>
		<path class="st3" d="M92.59,407.75h0.65v8.4h-0.65V407.75z"/>
		<path class="st3" d="M99.13,407.75h0.65v8.4H99.3l-0.17-1.08c-0.09,0.36-0.29,0.65-0.61,0.87c-0.32,0.22-0.72,0.33-1.21,0.33
			c-0.73,0-1.32-0.26-1.75-0.79c-0.43-0.53-0.65-1.26-0.65-2.21c0-0.95,0.22-1.69,0.66-2.22c0.44-0.53,1.04-0.8,1.8-0.8
			c0.9,0,1.49,0.37,1.77,1.12V407.75z M98.73,411.45c-0.29-0.45-0.74-0.68-1.35-0.68c-0.6,0-1.05,0.23-1.35,0.68
			c-0.29,0.45-0.44,1.06-0.44,1.82c0,0.76,0.15,1.37,0.44,1.82c0.29,0.45,0.74,0.68,1.35,0.68c0.6,0,1.05-0.23,1.35-0.68
			c0.29-0.45,0.44-1.06,0.44-1.82C99.17,412.5,99.03,411.9,98.73,411.45z"/>
		<path class="st3" d="M100.98,408.05h0.75l2.39,4.26l2.41-4.26h0.62l-2.78,4.84v3.25h-0.65v-3.25L100.98,408.05z"/>
		<path class="st3" d="M111.21,415.55v0.56c-0.27,0.09-0.57,0.13-0.9,0.13c-0.62,0-1.05-0.19-1.29-0.56
			c-0.09-0.13-0.14-0.28-0.17-0.46c-0.03-0.18-0.04-0.48-0.04-0.92v-3.32h-1.12v-0.52h1.12v-1.72l0.65-0.22v1.94h1.77v0.52h-1.77
			v3.23c0,0.23,0,0.39,0.01,0.5c0,0.1,0.01,0.21,0.03,0.32c0.02,0.12,0.05,0.22,0.09,0.3c0.13,0.26,0.38,0.39,0.74,0.39
			c0.27,0,0.53-0.06,0.81-0.17H111.21z"/>
	</g>
</g>
<g>
	<g>
		<path class="st4" d="M66.76,406.6c1.87,0,3.31,0.48,4.32,1.43s1.51,2.4,1.51,4.35c0,1.02-0.11,1.92-0.34,2.71
			c-0.23,0.79-0.58,1.45-1.05,1.99c-0.48,0.54-1.08,0.95-1.82,1.23c-0.74,0.28-1.61,0.42-2.62,0.42h-4.17V406.6H66.76z
			 M66.89,417.38c0.18,0,0.41-0.01,0.68-0.04c0.27-0.03,0.56-0.1,0.87-0.2c0.31-0.11,0.61-0.26,0.91-0.47
			c0.3-0.2,0.57-0.48,0.81-0.83c0.24-0.35,0.43-0.79,0.59-1.32s0.23-1.16,0.23-1.91c0-0.73-0.07-1.37-0.21-1.95
			c-0.14-0.57-0.37-1.06-0.7-1.46c-0.32-0.4-0.74-0.71-1.25-0.92c-0.51-0.21-1.14-0.31-1.89-0.31h-2.72v9.42H66.89z"/>
		<path class="st4" d="M80.54,418.18c-0.66,0.5-1.48,0.75-2.48,0.75c-0.7,0-1.31-0.11-1.83-0.34c-0.52-0.23-0.95-0.54-1.3-0.95
			c-0.35-0.41-0.62-0.89-0.79-1.46c-0.18-0.57-0.27-1.18-0.3-1.85c0-0.67,0.1-1.28,0.31-1.84s0.49-1.04,0.86-1.45
			s0.8-0.72,1.31-0.95c0.5-0.23,1.06-0.34,1.66-0.34c0.78,0,1.43,0.16,1.95,0.48c0.52,0.32,0.93,0.73,1.24,1.23
			c0.31,0.5,0.53,1.04,0.65,1.63c0.12,0.59,0.17,1.15,0.14,1.68h-6.58c-0.01,0.39,0.03,0.75,0.14,1.1c0.1,0.35,0.27,0.65,0.49,0.92
			c0.23,0.27,0.51,0.48,0.87,0.64c0.35,0.16,0.77,0.24,1.24,0.24c0.61,0,1.11-0.14,1.5-0.42c0.39-0.28,0.65-0.71,0.77-1.29h1.43
			C81.63,416.93,81.2,417.68,80.54,418.18z M80.2,412.53c-0.13-0.31-0.31-0.57-0.53-0.79c-0.22-0.22-0.48-0.4-0.78-0.53
			c-0.3-0.13-0.63-0.2-0.99-0.2c-0.37,0-0.71,0.07-1.01,0.2c-0.3,0.13-0.56,0.31-0.77,0.54c-0.22,0.23-0.39,0.49-0.51,0.79
			c-0.13,0.3-0.2,0.62-0.22,0.96h5.05C80.4,413.16,80.33,412.84,80.2,412.53z"/>
		<path class="st4" d="M84.56,416.77c0.14,0.22,0.31,0.4,0.54,0.53c0.22,0.13,0.47,0.22,0.75,0.28c0.28,0.06,0.56,0.08,0.86,0.08
			c0.23,0,0.46-0.02,0.71-0.05s0.48-0.1,0.69-0.19s0.38-0.22,0.52-0.4c0.14-0.17,0.2-0.4,0.2-0.67c0-0.37-0.14-0.66-0.42-0.85
			c-0.28-0.19-0.64-0.35-1.06-0.47s-0.89-0.23-1.39-0.32c-0.5-0.1-0.96-0.23-1.39-0.41c-0.42-0.18-0.78-0.42-1.06-0.74
			s-0.42-0.76-0.42-1.33c0-0.44,0.1-0.82,0.3-1.14s0.45-0.58,0.76-0.77s0.66-0.35,1.05-0.44c0.39-0.1,0.78-0.14,1.17-0.14
			c0.5,0,0.96,0.04,1.38,0.13c0.42,0.08,0.79,0.23,1.11,0.44c0.32,0.21,0.58,0.49,0.77,0.85c0.19,0.36,0.31,0.8,0.34,1.33h-1.44
			c-0.02-0.28-0.1-0.52-0.22-0.71c-0.12-0.19-0.28-0.34-0.48-0.45c-0.19-0.11-0.41-0.2-0.64-0.25s-0.47-0.08-0.71-0.08
			c-0.22,0-0.43,0.02-0.65,0.05c-0.22,0.03-0.42,0.09-0.6,0.18c-0.18,0.08-0.33,0.2-0.44,0.34s-0.17,0.33-0.17,0.55
			c0,0.25,0.09,0.46,0.26,0.62c0.17,0.16,0.4,0.3,0.67,0.41c0.27,0.11,0.58,0.2,0.92,0.27c0.34,0.07,0.68,0.15,1.02,0.23
			c0.36,0.08,0.72,0.18,1.06,0.29s0.65,0.26,0.92,0.45c0.27,0.19,0.48,0.42,0.65,0.71s0.25,0.63,0.25,1.05
			c0,0.53-0.11,0.98-0.33,1.33c-0.22,0.35-0.51,0.63-0.87,0.85c-0.36,0.21-0.76,0.37-1.21,0.45c-0.45,0.08-0.89,0.13-1.33,0.13
			c-0.49,0-0.95-0.05-1.39-0.15c-0.44-0.1-0.83-0.27-1.17-0.5c-0.34-0.23-0.61-0.54-0.82-0.92c-0.2-0.38-0.32-0.84-0.34-1.39h1.44
			C84.35,416.28,84.42,416.55,84.56,416.77z"/>
		<path class="st4" d="M92.04,408.37v-1.77h1.45v1.77H92.04z M93.48,409.95v8.79h-1.45v-8.79H93.48z"/>
		<path class="st4" d="M102.32,421.22c-0.66,0.71-1.69,1.07-3.09,1.07c-0.41,0-0.82-0.04-1.25-0.14c-0.43-0.09-0.81-0.24-1.16-0.44
			c-0.35-0.2-0.63-0.47-0.86-0.8s-0.35-0.73-0.37-1.21h1.45c0.01,0.26,0.09,0.48,0.25,0.66s0.34,0.33,0.56,0.44
			c0.22,0.11,0.46,0.2,0.72,0.25s0.51,0.08,0.75,0.08c0.48,0,0.88-0.08,1.21-0.25s0.6-0.39,0.82-0.68c0.21-0.29,0.37-0.64,0.47-1.05
			c0.1-0.41,0.14-0.86,0.14-1.34v-0.58h-0.03c-0.25,0.54-0.63,0.94-1.13,1.2c-0.5,0.25-1.04,0.38-1.61,0.38
			c-0.66,0-1.23-0.12-1.72-0.36c-0.49-0.24-0.9-0.56-1.22-0.96c-0.33-0.4-0.58-0.87-0.74-1.41s-0.25-1.11-0.25-1.71
			c0-0.52,0.07-1.06,0.2-1.61c0.14-0.55,0.36-1.05,0.68-1.5c0.32-0.45,0.74-0.82,1.26-1.11s1.16-0.43,1.92-0.43
			c0.56,0,1.07,0.12,1.53,0.37c0.46,0.24,0.83,0.61,1.09,1.1h0.02v-1.26h1.36v8.04C103.31,419.43,102.98,420.5,102.32,421.22z
			 M100.48,417.27c0.33-0.2,0.6-0.46,0.81-0.78c0.2-0.32,0.35-0.69,0.45-1.1c0.1-0.41,0.14-0.82,0.14-1.22
			c0-0.38-0.05-0.76-0.14-1.14c-0.09-0.37-0.24-0.71-0.43-1.01c-0.2-0.3-0.46-0.54-0.77-0.72c-0.32-0.18-0.7-0.27-1.16-0.27
			c-0.46,0-0.86,0.09-1.19,0.26c-0.33,0.18-0.6,0.41-0.81,0.71c-0.21,0.29-0.36,0.63-0.46,1.02c-0.1,0.38-0.14,0.79-0.14,1.21
			c0,0.4,0.04,0.79,0.12,1.19s0.22,0.76,0.41,1.08c0.19,0.32,0.45,0.58,0.76,0.78s0.71,0.3,1.19,0.3S100.14,417.46,100.48,417.27z"
			/>
		<path class="st4" d="M106.84,409.95v1.39h0.03c0.6-1.07,1.55-1.6,2.86-1.6c0.58,0,1.06,0.08,1.45,0.24
			c0.38,0.16,0.7,0.38,0.93,0.66c0.24,0.28,0.41,0.62,0.5,1.01c0.1,0.39,0.14,0.82,0.14,1.3v5.78h-1.45v-5.95
			c0-0.54-0.16-0.97-0.48-1.29c-0.32-0.32-0.75-0.48-1.31-0.48c-0.44,0-0.82,0.07-1.15,0.2c-0.32,0.14-0.59,0.33-0.81,0.58
			c-0.21,0.25-0.38,0.54-0.48,0.88s-0.16,0.7-0.16,1.1v4.96h-1.45v-8.79H106.84z"/>
		<path class="st4" d="M121.16,418.18c-0.66,0.5-1.48,0.75-2.48,0.75c-0.7,0-1.31-0.11-1.83-0.34c-0.52-0.23-0.95-0.54-1.3-0.95
			c-0.35-0.41-0.62-0.89-0.79-1.46c-0.18-0.57-0.27-1.18-0.3-1.85c0-0.67,0.1-1.28,0.31-1.84s0.49-1.04,0.86-1.45
			s0.8-0.72,1.31-0.95c0.5-0.23,1.06-0.34,1.66-0.34c0.78,0,1.43,0.16,1.95,0.48c0.52,0.32,0.93,0.73,1.24,1.23
			c0.31,0.5,0.53,1.04,0.65,1.63c0.12,0.59,0.17,1.15,0.14,1.68h-6.58c-0.01,0.39,0.03,0.75,0.14,1.1c0.1,0.35,0.27,0.65,0.49,0.92
			c0.23,0.27,0.51,0.48,0.87,0.64c0.35,0.16,0.77,0.24,1.24,0.24c0.61,0,1.11-0.14,1.5-0.42c0.39-0.28,0.65-0.71,0.77-1.29h1.43
			C122.24,416.93,121.81,417.68,121.16,418.18z M120.81,412.53c-0.13-0.31-0.31-0.57-0.53-0.79c-0.22-0.22-0.48-0.4-0.78-0.53
			c-0.3-0.13-0.63-0.2-0.99-0.2c-0.37,0-0.71,0.07-1.01,0.2c-0.3,0.13-0.56,0.31-0.77,0.54c-0.22,0.23-0.39,0.49-0.51,0.79
			c-0.13,0.3-0.2,0.62-0.22,0.96h5.05C121.02,413.16,120.94,412.84,120.81,412.53z"/>
		<path class="st4" d="M130.47,418.74v-1.19h-0.03c-0.24,0.49-0.61,0.84-1.12,1.05c-0.51,0.21-1.07,0.32-1.68,0.32
			c-0.68,0-1.27-0.12-1.78-0.37c-0.5-0.25-0.92-0.58-1.26-1c-0.33-0.42-0.59-0.91-0.76-1.46c-0.17-0.55-0.25-1.14-0.25-1.77
			s0.08-1.21,0.25-1.77c0.16-0.55,0.41-1.04,0.75-1.45c0.33-0.41,0.75-0.74,1.26-0.99c0.5-0.24,1.09-0.37,1.76-0.37
			c0.23,0,0.47,0.02,0.73,0.07c0.26,0.04,0.52,0.12,0.78,0.23s0.51,0.25,0.74,0.42c0.23,0.18,0.43,0.39,0.59,0.65h0.03v-4.52h1.45
			v12.14H130.47z M125.28,415.62c0.11,0.39,0.27,0.74,0.49,1.04c0.22,0.31,0.5,0.55,0.85,0.73s0.75,0.27,1.22,0.27
			c0.49,0,0.9-0.1,1.24-0.29c0.34-0.19,0.62-0.44,0.83-0.76c0.22-0.31,0.37-0.67,0.47-1.06s0.14-0.8,0.14-1.21
			c0-0.43-0.05-0.85-0.15-1.25c-0.1-0.4-0.26-0.76-0.48-1.06c-0.22-0.31-0.51-0.55-0.86-0.74s-0.78-0.28-1.27-0.28
			c-0.49,0-0.9,0.1-1.24,0.29s-0.61,0.45-0.82,0.76s-0.35,0.68-0.44,1.09c-0.09,0.41-0.14,0.83-0.14,1.26
			C125.12,414.83,125.17,415.23,125.28,415.62z"/>
		<path class="st4" d="M137.99,411.22v-1.28h1.48v-1.31c0-0.71,0.21-1.26,0.62-1.62c0.41-0.37,1.02-0.55,1.81-0.55
			c0.14,0,0.29,0.01,0.47,0.03c0.18,0.02,0.33,0.06,0.47,0.1v1.26c-0.13-0.04-0.26-0.08-0.41-0.09c-0.15-0.02-0.28-0.03-0.41-0.03
			c-0.35,0-0.62,0.07-0.82,0.2s-0.29,0.4-0.29,0.78v1.22h1.7v1.28h-1.7v7.51h-1.45v-7.51H137.99z"/>
		<path class="st4" d="M143.7,412.54c0.18-0.56,0.45-1.05,0.82-1.46c0.36-0.41,0.81-0.74,1.34-0.98c0.53-0.24,1.14-0.36,1.84-0.36
			c0.7,0,1.32,0.12,1.84,0.36c0.53,0.24,0.97,0.56,1.33,0.98c0.36,0.41,0.63,0.9,0.82,1.46c0.18,0.56,0.27,1.16,0.27,1.81
			c0,0.65-0.09,1.25-0.27,1.8c-0.18,0.56-0.45,1.04-0.82,1.45c-0.36,0.41-0.81,0.74-1.33,0.97c-0.53,0.23-1.14,0.35-1.84,0.35
			c-0.69,0-1.3-0.12-1.84-0.35c-0.53-0.23-0.98-0.56-1.34-0.97c-0.36-0.41-0.63-0.9-0.82-1.45c-0.18-0.55-0.27-1.16-0.27-1.8
			C143.43,413.7,143.52,413.1,143.7,412.54z M145.17,415.77c0.14,0.41,0.34,0.76,0.59,1.04c0.25,0.28,0.54,0.49,0.88,0.64
			s0.69,0.22,1.06,0.22s0.73-0.07,1.06-0.22s0.63-0.36,0.88-0.64c0.25-0.28,0.44-0.62,0.59-1.04c0.14-0.41,0.21-0.89,0.21-1.42
			c0-0.53-0.07-1.01-0.21-1.42c-0.14-0.41-0.34-0.76-0.59-1.04c-0.25-0.28-0.54-0.5-0.88-0.65s-0.69-0.22-1.06-0.22
			s-0.73,0.07-1.06,0.22s-0.63,0.36-0.88,0.65c-0.25,0.28-0.45,0.63-0.59,1.04c-0.14,0.41-0.21,0.89-0.21,1.42
			C144.96,414.88,145.03,415.36,145.17,415.77z"/>
		<path class="st4" d="M154.97,409.95v1.85H155c0.35-0.71,0.78-1.24,1.29-1.58c0.51-0.34,1.16-0.5,1.94-0.48v1.53
			c-0.58,0-1.07,0.08-1.48,0.24c-0.41,0.16-0.74,0.39-0.99,0.7c-0.25,0.31-0.43,0.68-0.54,1.11c-0.11,0.44-0.17,0.94-0.17,1.5v3.91
			h-1.45v-8.79H154.97z"/>
		<path class="st4" d="M70.74,424.72h0.9l3.25,7.34l3.22-7.34H79v8.42h-0.67v-7.57l-3.18,7.21h-0.63l-3.16-7.21v7.57h-0.63V424.72z"
			/>
		<path class="st4" d="M81.19,424.85h0.76v0.85h-0.76V424.85z M81.24,427.14h0.67v6h-0.67V427.14z"/>
		<path class="st4" d="M84.06,424.4h0.67v5.71l2.82-2.98h0.81l-2.44,2.51l2.58,3.49h-0.81l-2.23-3.03l-0.73,0.73v2.31h-0.67V424.4z"
			/>
		<path class="st4" d="M93.95,432.37v0.58c-0.49,0.18-1.03,0.27-1.6,0.27c-0.91,0-1.59-0.25-2.03-0.74
			c-0.48-0.52-0.72-1.31-0.72-2.35c0-0.99,0.22-1.75,0.66-2.31c0.44-0.55,1.04-0.83,1.8-0.83c0.86,0,1.47,0.34,1.83,1.03
			c0.11,0.21,0.19,0.44,0.25,0.7c0.05,0.26,0.08,0.5,0.09,0.72c0.01,0.22,0.02,0.48,0.02,0.78h-3.94c0,0.81,0.17,1.42,0.52,1.84
			c0.34,0.42,0.85,0.63,1.52,0.63c0.49,0,0.99-0.1,1.5-0.31H93.95z M90.33,429.71h3.22c0-0.71-0.13-1.25-0.38-1.62
			s-0.63-0.55-1.13-0.55c-0.52,0-0.93,0.19-1.21,0.57C90.54,428.49,90.37,429.02,90.33,429.71z"/>
		<path class="st4" d="M95.3,424.72h0.72l1.97,7.43l2.15-7.16h0.67l2.02,7.16l2.1-7.43h0.63l-2.46,8.42h-0.63l-2.06-7.21l-2.15,7.21
			h-0.67L95.3,424.72z"/>
		<path class="st4" d="M109.18,433.27c-0.82,0-1.46-0.27-1.91-0.82s-0.68-1.31-0.68-2.29s0.23-1.76,0.69-2.32
			c0.46-0.56,1.11-0.84,1.95-0.84c0.82,0,1.46,0.27,1.91,0.82s0.68,1.31,0.68,2.29s-0.23,1.76-0.69,2.32
			C110.66,432.99,110.01,433.27,109.18,433.27z M107.78,432.08c0.32,0.43,0.79,0.65,1.42,0.65s1.1-0.22,1.42-0.65
			c0.32-0.43,0.48-1.08,0.48-1.95c0-0.87-0.16-1.51-0.48-1.95c-0.32-0.43-0.79-0.65-1.42-0.65s-1.1,0.22-1.42,0.65
			c-0.32,0.43-0.48,1.08-0.48,1.95C107.3,431,107.46,431.65,107.78,432.08z"/>
		<path class="st4" d="M116.25,427.09v0.63c-0.16-0.03-0.34-0.04-0.53-0.04c-0.19,0-0.37,0.02-0.53,0.07s-0.29,0.1-0.4,0.18
			c-0.1,0.08-0.19,0.16-0.26,0.26c-0.07,0.1-0.13,0.2-0.16,0.3c-0.04,0.1-0.07,0.21-0.09,0.35c-0.02,0.13-0.04,0.24-0.04,0.33
			s-0.01,0.19-0.01,0.31v3.67h-0.67v-6h0.49l0.13,1.12c0.06-0.23,0.15-0.42,0.26-0.58c0.12-0.15,0.26-0.27,0.42-0.36
			s0.35-0.15,0.53-0.18c0.19-0.03,0.39-0.05,0.62-0.05H116.25z"/>
		<path class="st4" d="M117.64,424.4h0.67v8.73h-0.67V424.4z"/>
		<path class="st4" d="M124.45,424.4h0.67v8.73h-0.49l-0.18-1.12c-0.09,0.37-0.3,0.67-0.64,0.91s-0.75,0.35-1.25,0.35
			c-0.76,0-1.37-0.27-1.82-0.82c-0.45-0.55-0.68-1.32-0.68-2.3c0-0.98,0.23-1.75,0.68-2.31c0.46-0.56,1.08-0.83,1.87-0.83
			c0.93,0,1.54,0.39,1.84,1.17V424.4z M124.03,428.24c-0.31-0.47-0.77-0.71-1.4-0.71s-1.09,0.23-1.4,0.71
			c-0.31,0.47-0.46,1.1-0.46,1.89s0.15,1.42,0.46,1.89c0.31,0.47,0.77,0.71,1.4,0.71s1.09-0.23,1.4-0.71
			c0.31-0.47,0.46-1.1,0.46-1.89S124.34,428.71,124.03,428.24z"/>
		<path class="st4" d="M126.46,424.72h2.78v0.45h-1.12v3.07h-0.54v-3.07h-1.12V424.72z M130.04,424.72h0.74l1.25,2.71l1.25-2.71
			h0.74v3.51h-0.54v-2.93l-1.23,2.69h-0.49l-1.23-2.69v2.93h-0.49V424.72z"/>
	</g>
</g>
</svg>
